<?xml version="1.0" standalone="no"?>
<!DOCTYPE svg PUBLIC "-//W3C//DTD SVG 20010904//EN"
 "http://www.w3.org/TR/2001/REC-SVG-20010904/DTD/svg10.dtd">
<svg version="1.0" xmlns="http://www.w3.org/2000/svg"
 width="23.000000pt" height="57.000000pt" viewBox="0 0 234.000000 60.000000"
 preserveAspectRatio="xMidYMid meet">

<g transform="translate(0.000000,57.000000) scale(0.100000,-0.100000)"
fill="#000000" stroke="none">
<path d="M223 560 c-131 -27 -218 -137 -217 -275 1 -89 28 -149 96 -210 57
-51 97 -65 189 -65 111 0 205 62 252 169 26 58 20 177 -10 236 -57 109 -188
170 -310 145z m102 -216 c42 -31 72 -60 68 -64 -24 -22 -161 -120 -166 -120
-4 0 -7 57 -7 126 0 146 -7 142 105 58z"/>
<path d="M1003 424 c-8 -21 19 -46 40 -38 9 3 17 17 17 30 0 19 -5 24 -25 24
-14 0 -28 -7 -32 -16z"/>
<path d="M1270 381 l0 -50 -27 15 c-36 18 -59 18 -93 -3 -49 -29 -65 -96 -35
-153 26 -50 88 -66 133 -34 20 14 22 14 22 0 0 -10 9 -16 25 -16 l25 0 0 145
0 145 -25 0 c-23 0 -25 -3 -25 -49z m-16 -93 c22 -32 20 -55 -8 -83 -20 -19
-30 -23 -48 -16 -43 15 -56 71 -26 109 17 20 65 14 82 -10z"/>
<path d="M1860 285 l0 -145 24 0 c13 0 26 5 28 11 3 9 9 9 25 0 39 -20 82 -13
114 18 24 25 29 38 29 79 0 84 -66 132 -136 99 l-34 -17 0 50 c0 47 -2 50 -25
50 l-25 0 0 -145z m154 3 c22 -32 20 -55 -8 -83 -29 -29 -63 -23 -83 16 -33
63 51 124 91 67z"/>
<path d="M712 398 c3 -7 25 -68 49 -136 l44 -123 34 3 c29 3 36 8 47 38 7 19
28 79 48 133 l36 97 -30 0 c-28 0 -30 -4 -61 -100 -19 -55 -37 -100 -40 -100
-4 0 -22 45 -40 100 -32 96 -34 100 -62 100 -19 0 -28 -4 -25 -12z"/>
<path d="M1360 391 c0 -16 8 -20 38 -23 l37 -3 3 -112 c3 -113 3 -113 27 -113
l25 0 0 115 0 115 35 0 c28 0 35 4 35 20 0 19 -7 20 -100 20 -92 0 -100 -1
-100 -19z"/>
<path d="M1007 354 c-4 -4 -7 -54 -7 -111 l0 -103 30 0 31 0 -3 108 c-3 99 -5
107 -23 110 -12 2 -24 0 -28 -4z"/>
<path d="M1600 285 c0 -79 16 -127 45 -139 25 -9 64 -7 86 4 13 7 19 7 19 0 0
-5 14 -10 30 -10 l31 0 -3 108 -3 107 -27 3 -28 3 0 -75 c0 -68 -2 -77 -24
-91 -48 -32 -76 6 -76 106 0 56 -1 59 -25 59 -24 0 -25 -2 -25 -75z"/>
<path d="M2168 344 c-31 -16 -58 -61 -58 -94 0 -35 29 -86 56 -99 48 -21 93
-14 127 22 l32 32 -28 3 c-17 2 -37 -4 -48 -14 -15 -14 -25 -16 -47 -8 -15 5
-28 17 -30 27 -3 15 6 17 72 17 l76 0 0 30 c0 41 -25 76 -62 89 -40 14 -57 13
-90 -5z m90 -46 c22 -22 13 -28 -38 -28 -27 0 -50 4 -50 8 0 16 25 32 50 32
14 0 31 -5 38 -12z"/>
</g>
</svg>
